<svg xmlns="http://www.w3.org/2000/svg" viewBox="-27.7889 7.4687 539.3757 461.4435" width="180" height="180">
  <path d="M 169.824 76.228 C 179.799 76.228 187.824 84.254 187.824 94.228 C 187.824 104.202 179.799 112.228 169.824 112.228 C 159.85 112.228 151.824 104.202 151.824 94.228 C 151.824 84.254 159.85 76.228 169.824 76.228 Z M 169.824 142.228 C 170.65 142.228 171.475 142.228 172.299 142.153 L 192.475 185.353 C 168.999 201.628 152.199 226.903 147.324 256.228 L 94.375 256.228 C 87.25 238.602 69.999 226.228 49.899 226.228 C 23.424 226.228 1.899 247.753 1.899 274.228 C 1.899 300.702 23.424 322.228 49.899 322.228 C 70.075 322.228 87.324 309.854 94.375 292.228 L 147.324 292.228 C 155.873 343.302 200.349 382.228 253.824 382.228 C 286.675 382.228 316.073 367.602 335.873 344.428 L 386.424 374.728 C 386.05 377.128 385.824 379.677 385.824 382.153 C 385.824 408.628 407.349 430.153 433.824 430.153 C 460.299 430.153 481.824 408.628 481.824 382.153 C 481.824 355.677 460.299 334.153 433.824 334.153 C 422.949 334.153 412.975 337.752 404.949 343.828 L 354.473 313.528 C 359.273 301.303 361.899 288.028 361.899 274.153 C 361.899 256.752 357.775 240.254 350.424 225.702 L 408.624 183.028 C 415.975 187.602 424.599 190.228 433.899 190.228 C 460.373 190.228 481.899 168.702 481.899 142.228 C 481.899 115.753 460.373 94.228 433.899 94.228 C 407.424 94.228 385.899 115.753 385.899 142.228 C 385.899 146.277 386.424 150.252 387.324 154.002 L 329.124 196.677 C 309.699 177.778 283.149 166.153 253.899 166.153 C 243.925 166.153 234.325 167.503 225.173 170.052 L 204.999 126.928 C 212.949 118.378 217.824 106.903 217.824 94.228 C 217.824 67.753 196.299 46.228 169.824 46.228 C 143.349 46.228 121.824 67.753 121.824 94.228 C 121.824 120.702 143.349 142.228 169.824 142.228 Z M 433.824 124.228 C 443.799 124.228 451.824 132.254 451.824 142.228 C 451.824 152.202 443.799 160.228 433.824 160.228 C 423.85 160.228 415.824 152.202 415.824 142.228 C 415.824 132.254 423.85 124.228 433.824 124.228 Z M 415.824 382.228 C 415.824 372.254 423.85 364.228 433.824 364.228 C 443.799 364.228 451.824 372.254 451.824 382.228 C 451.824 392.202 443.799 400.228 433.824 400.228 C 423.85 400.228 415.824 392.202 415.824 382.228 Z M 49.824 256.228 C 59.799 256.228 67.824 264.254 67.824 274.228 C 67.824 284.202 59.799 292.228 49.824 292.228 C 39.85 292.228 31.824 284.202 31.824 274.228 C 31.824 264.254 39.85 256.228 49.824 256.228 Z M 253.824 202.228 C 293.575 202.228 325.824 234.477 325.824 274.228 C 325.824 313.978 293.575 346.228 253.824 346.228 C 214.075 346.228 181.824 313.978 181.824 274.228 C 181.824 234.477 214.075 202.228 253.824 202.228 Z" style="transform-origin: 241.899px 238.19px;" transform="matrix(0.98480803, 0.17364803, -0.17364803, 0.98480803, -0.00000707, -0.00000196)" fill="#6366f1"/>
  <path d="M 284.771 235.232 C 279.677 235.232 275.51 239.399 275.51 244.493 L 275.51 303.76 C 275.51 308.854 279.677 313.021 284.771 313.021 C 289.864 313.021 294.031 308.854 294.031 303.76 L 294.031 244.493 C 294.031 239.399 289.864 235.232 284.771 235.232 Z" fill="#6366f1"/>
  <path d="M 237.68 240.789 C 236.199 237.408 232.865 235.232 229.207 235.232 C 225.549 235.232 222.215 237.408 220.734 240.789 L 194.804 300.056 C 192.766 304.732 194.896 310.196 199.573 312.234 C 204.25 314.271 209.714 312.141 211.751 307.464 L 214.205 301.908 L 244.209 301.908 L 246.663 307.464 C 248.701 312.141 254.164 314.271 258.841 312.234 C 263.517 310.196 265.647 304.732 263.61 300.056 L 237.68 240.789 Z M 229.207 267.598 L 236.106 283.387 L 222.308 283.387 L 229.207 267.598 Z" fill="#6366f1"/>
</svg>
